<?xml version="1.0" encoding="UTF-8"?><svg id="rgb" xmlns="http://www.w3.org/2000/svg" viewBox="0 0 180 70"><defs><style>.cls-1{fill:#2e2e2e;}.cls-1,.cls-2,.cls-3,.cls-4,.cls-5,.cls-6{stroke-width:0px;}.cls-2{fill:#4d4d4d;}.cls-3{fill:#00558d;}.cls-4{fill:#bed9ec;}.cls-5{fill:#99c6e4;}.cls-6{fill:#338dc9;}</style></defs><path class="cls-4" d="M99.05,12.07v45.87c0,.59.48,1.07,1.07,1.07h20.41c5.89,0,10.67-4.78,10.67-10.67v-26.67c0-5.89-4.78-10.67-10.67-10.67h-20.41c-.59,0-1.07.48-1.07,1.07ZM118.6,50.8h-9.09c-.59,0-1.07-.48-1.07-1.07v-29.46c0-.59.48-1.07,1.07-1.07h9.09c1.77,0,3.2,1.43,3.2,3.2v25.19c0,1.77-1.43,3.2-3.2,3.2Z"/><rect class="cls-5" x="99.05" y="11" width="9.39" height="48" rx="1.87" ry="1.87"/><path class="cls-1" d="M58.2,48.54V12.07c0-.59-.48-1.07-1.07-1.07h-7.26c-.59,0-1.07.48-1.07,1.07v45.87c0,.59.48,1.07,1.07,1.07h33.2c.59,0,1.07-.48,1.07-1.07v-7.26c0-.59-.48-1.07-1.07-1.07h-23.81c-.59,0-1.07-.48-1.07-1.07Z"/><path class="cls-2" d="M83.07,49.61h-23.81c-.32,0-.61-.15-.8-.37l-9.39,9.39c.2.23.48.37.8.37h33.2c.59,0,1.07-.48,1.07-1.07v-7.26c0-.59-.48-1.07-1.07-1.07Z"/><rect class="cls-3" x="74.75" y="11" width="9.39" height="48" rx="1.87" ry="1.87"/><rect class="cls-5" x="99.05" y="11" width="9.39" height="48" rx="1.87" ry="1.87"/><path class="cls-6" d="M107.37,59h-7.26c-.4,0-.77-.23-.95-.58l-24.3-45.87c-.36-.71.16-1.55.95-1.55h7.26c.4,0,.77.23.95.58l24.3,45.87c.36.71-.16,1.55-.95,1.55Z"/></svg>