<?xml version="1.0" encoding="UTF-8"?><svg id="rgb" xmlns="http://www.w3.org/2000/svg" viewBox="0 0 180 70"><defs><style>.cls-1{fill:#000;}.cls-1,.cls-2{stroke-width:0px;}.cls-2{fill:#f0d003;}</style></defs><polygon class="cls-1" points="50.04 52.71 50.04 39.54 47.06 39.54 47.06 55.18 55.58 55.18 56.81 52.71 50.04 52.71"/><rect class="cls-1" x="61.71" y="39.54" width="2.97" height="15.64"/><polygon class="cls-1" points="98.62 55.18 98.62 39.54 95.64 39.54 95.64 45.85 89.89 45.85 89.89 39.54 86.92 39.54 86.92 55.18 89.89 55.18 89.89 48.31 95.64 48.31 95.64 55.18 98.62 55.18"/><polygon class="cls-1" points="114.53 39.54 104.21 39.54 102.96 42.03 107.26 42.03 107.26 55.18 110.23 55.18 110.23 42.03 113.28 42.03 114.53 39.54"/><polygon class="cls-1" points="130.61 55.18 130.61 39.54 127.81 39.54 127.81 49.84 121.39 39.54 118.91 39.54 118.91 55.18 121.73 55.18 121.73 45.03 128.12 55.18 130.61 55.18"/><rect class="cls-1" x="136.6" y="39.54" width="2.97" height="15.64"/><polygon class="cls-1" points="157.23 55.18 157.23 39.54 154.41 39.54 154.41 49.84 148 39.54 145.53 39.54 145.53 55.18 148.33 55.18 148.33 45.03 154.72 55.18 157.23 55.18"/><path class="cls-1" d="M167.01,55.25c.2.05.4.08.6.12h.05c.32.06.6.07.87.07.22,0,.46-.01.72-.04h.05s.02,0,.04-.01c.01,0,.04-.01.06-.01,1.64-.13,3.03-.76,4.1-1.83,1.09-1.09,1.5-2.43,1.5-4.81v-2.27h-4.56l-1.34,2.48h2.93v.66c0,.93-.25,1.67-.73,2.16-.61.64-1.35.82-1.91.9-.22.04-.46.06-.67.06-1.96,0-3.95-1.65-3.95-5.34,0-2.67,1.18-5.37,3.83-5.37.19,0,.38.01.58.04,1.08.18,2.34.89,2.74,2.09l2.52-1.48c-.3-.58-1.68-2.93-5.11-3.29h-.06c-.26-.02-.51-.04-.73-.04-.51,0-1.03.06-1.52.18h-.07s-.04.02-.04.02c-.09.02-.19.05-.3.08-3.07.87-4.94,3.85-4.87,7.78,0,3.97,1.91,6.95,4.99,7.78v.04h.01v-.02c.11.01.19.04.27.05Z"/><path class="cls-1" d="M74.39,55.25c.2.05.4.08.6.12h.05c.32.06.6.07.87.07.22,0,.46-.01.72-.04h.05s.02,0,.04-.01c.01,0,.04-.01.06-.01,1.64-.13,3.03-.76,4.1-1.83,1.09-1.09,1.5-2.43,1.5-4.81v-2.27h-4.56l-1.34,2.48h2.93v.66c0,.93-.25,1.67-.73,2.16-.61.64-1.35.82-1.91.9-.22.04-.46.06-.67.06-1.96,0-3.95-1.65-3.95-5.34,0-2.67,1.18-5.37,3.83-5.37.19,0,.38.01.58.04,1.08.18,2.34.89,2.74,2.09l2.52-1.48c-.3-.58-1.68-2.93-5.11-3.29h-.06c-.26-.02-.51-.04-.73-.04-.51,0-1.03.06-1.52.18h-.07s-.04.02-.04.02c-.09.02-.19.05-.3.08-3.07.87-4.94,3.85-4.87,7.78,0,3.97,1.91,6.95,4.99,7.78v.04h.01v-.02c.09.01.18.04.27.05Z"/><path class="cls-2" d="M85.75,24.31l2.82,6.17h3.26l-3.26-6.71.13-.05c1.75-.72,2.64-2.12,2.64-4.15,0-3.05-2.07-4.73-5.81-4.73h-5.57v15.64h2.97v-6.24h2.79l.04.07ZM82.93,21.78v-4.44h2.29c1.56,0,3.14.27,3.14,2.25s-1.51,2.2-3.14,2.2h-2.29Z"/><polygon class="cls-2" points="106.22 17.33 106.22 14.84 96.58 14.84 96.58 30.48 106.22 30.48 106.22 28.02 99.54 28.02 99.54 23.61 105.53 23.61 105.53 21.16 99.54 21.16 99.54 17.33 106.22 17.33"/><path class="cls-2" d="M52.95,28.15c-.2.02-.4.05-.59.05-2.72,0-3.94-2.75-3.94-5.48h0c0-2.73,1.22-5.48,3.94-5.48.19,0,.39.01.59.05,1.08.18,2.35.89,2.8,2.08l2.4-1.42c-.39-.74-1.78-2.87-5.06-3.21h-.12c-.25-.04-.46-.05-.67-.05-.51,0-1.02.06-1.51.18l-.11.02c-.09.02-.19.05-.28.08-3.06.87-4.92,3.83-4.87,7.72h0v.06h0c-.05,3.9,1.81,6.85,4.87,7.73.09.04.19.06.28.08l.11.02c.5.12,1,.18,1.51.18.21,0,.43-.01.67-.04h.12c3.27-.34,4.67-2.48,5.06-3.23l-2.4-1.42c-.45,1.19-1.73,1.9-2.8,2.08Z"/><path class="cls-2" d="M75.55,22.64h0c.02-1.86-.39-3.49-1.13-4.8h0c-.21-.4-.72-1.21-1.64-1.91-.04-.02-.06-.05-.09-.07-.07-.06-.15-.11-.24-.17-.54-.37-1.15-.66-1.8-.85-.09-.04-.19-.06-.28-.08l-.11-.02c-.5-.12-1.02-.18-1.52-.18h-.21c-.52,0-1.03.06-1.52.18l-.11.02c-.09.02-.19.05-.28.08-.66.19-1.25.47-1.8.85-.08.05-.15.11-.24.17-.04.02-.06.05-.09.07-.92.71-1.43,1.51-1.64,1.91h0c-.76,1.31-1.16,2.94-1.13,4.79h0v.06h0c-.02,1.86.39,3.49,1.13,4.8h0c.21.4.72,1.21,1.64,1.91.04.02.06.05.09.07.07.06.15.11.24.17.54.37,1.15.66,1.8.85.09.04.19.06.28.08l.11.02c.5.12,1.02.18,1.52.18h.21c.52,0,1.03-.06,1.52-.18l.11-.02c.09-.02.19-.05.28-.08.66-.19,1.25-.47,1.8-.85.08-.05.15-.11.24-.17.04-.02.06-.05.09-.07.92-.71,1.43-1.51,1.64-1.91h0c.76-1.31,1.16-2.94,1.13-4.79h0v-.06ZM70.46,27.7c-.43.22-.87.38-1.29.45-.19.02-.37.04-.56.04-.18,0-.37-.01-.56-.04-.43-.07-.87-.22-1.29-.45-1.49-.92-2.16-2.98-2.16-5.03h0c0-2.06.69-4.11,2.16-5.03.43-.22.87-.38,1.29-.45.19-.02.37-.04.56-.04.18,0,.37.01.56.04.43.07.87.22,1.29.45,1.49.92,2.16,2.98,2.16,5.03h0c.01,2.06-.67,4.11-2.16,5.03Z"/><polygon class="cls-2" points="30.26 2.5 5.26 36.23 34 28.74 16.78 28.75 30.26 2.5"/><polygon class="cls-1" points="8.74 67.5 33.73 33.77 5 41.26 22.22 41.25 8.74 67.5"/></svg>