<?xml version="1.0" encoding="UTF-8"?><svg id="rgb" xmlns="http://www.w3.org/2000/svg" viewBox="0 0 152 32"><defs><style>.cls-1{fill:#000;stroke-width:0px;}</style></defs><path class="cls-1" d="M21.42,14.81c-1.36-.76-2.84-1.29-4.37-1.57l-5.03-.98c-1.29-.2-2.54-.63-3.69-1.26-.36-.23-.65-.55-.84-.93-.19-.38-.27-.81-.24-1.24-.02-.68.22-1.34.67-1.85.52-.57,1.18-.98,1.92-1.21.91-.3,1.86-.45,2.82-.43,1.19-.04,2.37.19,3.46.66.83.36,1.53.96,2.03,1.72.44.74.7,1.57.74,2.42v.28h6.39v-.31c-.07-1.87-.63-3.7-1.63-5.29-1.03-1.55-2.49-2.78-4.19-3.54-4.01-1.65-8.5-1.69-12.54-.09-1.7.69-3.18,1.83-4.28,3.3-1.02,1.4-1.57,3.09-1.55,4.82-.03,1.08.16,2.15.57,3.15.41,1,1.03,1.9,1.82,2.63,1.74,1.55,3.89,2.58,6.2,2.95l5.07.98c1.28.18,2.5.66,3.55,1.41.36.29.64.67.83,1.09.19.42.27.89.25,1.35.03.77-.22,1.53-.7,2.13-.52.6-1.21,1.03-1.97,1.25-.97.29-1.99.43-3,.41-1.23.01-2.44-.22-3.57-.7-1.04-.44-1.94-1.14-2.63-2.04-.69-.95-1.09-2.08-1.13-3.25v-.28H0v.32c.13,2.12.78,4.17,1.9,5.97,1.13,1.73,2.73,3.11,4.62,3.95,2.19.95,4.56,1.42,6.94,1.37,2.24.07,4.47-.35,6.53-1.23,1.7-.75,3.15-1.97,4.17-3.52.96-1.54,1.46-3.33,1.43-5.15.04-1.52-.35-3.03-1.13-4.34-.75-1.22-1.8-2.23-3.04-2.94Z"/><polygon class="cls-1" points="27.36 6.1 37.32 6.1 37.32 31.23 43.5 31.23 43.5 6.1 53.43 6.1 53.43 .78 27.36 .78 27.36 6.1"/><path class="cls-1" d="M79.05,13.8c1.17-1.35,1.79-3.09,1.73-4.88,0-2.62-.95-4.67-2.76-6.06-1.8-1.39-4.22-2.09-7.17-2.09h-13.5v30.45h6.18v-12.12h5.96c1.73,0,2.95.34,3.61,1,.66.66,1,1.85,1,3.52v7.59l6.21.02v-8.1c.08-1.74-.41-3.45-1.4-4.88-.77-1.04-1.86-1.79-3.1-2.14,1.24-.52,2.35-1.32,3.25-2.32ZM73.92,12.05c-.36.57-.9,1.01-1.52,1.25-.83.32-1.72.47-2.61.44h-6.27v-7.64h6.27c1.54,0,2.71.33,3.49.98.4.36.71.8.91,1.3.2.5.28,1.03.24,1.57.03.74-.15,1.46-.51,2.1Z"/><rect class="cls-1" x="86.93" y=".78" width="6.18" height="30.45"/><path class="cls-1" d="M124.95.73h-7.95l-9.75,10.37c-.23.24-.45.47-.65.7l-.54.64-.24.3V.73h-6.09v30.46h6.09v-10.54l2.61-2.71,10.03,13.25h8.13l-14-17.59L124.95.73Z"/><polygon class="cls-1" points="135.05 25.85 135.05 18.13 149.58 18.13 149.58 12.76 135.05 12.76 135.05 6.06 150.22 6.06 150.22 .73 128.87 .73 128.87 31.18 150.86 31.18 150.86 25.85 135.05 25.85"/></svg>